HIERARCHY
ROOT Hips
{
	OFFSET -3.958830 18.904000 13.208200
	CHANNELS 6 Xposition Yposition Zposition Zrotation Yrotation Xrotation 
	JOINT LHipJoint
	{
		OFFSET 0.000000 0.000000 0.000000
		CHANNELS 3 Zrotation Yrotation Xrotation
		JOINT LeftUpLeg
		{
			OFFSET 1.800000 -1.400000 0.085000
			CHANNELS 3 Zrotation Yrotation Xrotation
			JOINT LeftLeg
			{
				OFFSET 2.215000 -6.000000 0.000000
				CHANNELS 3 Zrotation Yrotation Xrotation
				JOINT LeftFoot
				{
					OFFSET 2.500000 -6.900000 0.000000
					CHANNELS 3 Zrotation Yrotation Xrotation
					JOINT LeftToeBase
					{
						OFFSET 0.200000 -0.500000 1.950000
						CHANNELS 3 Zrotation Yrotation Xrotation
						End Site
						{
							OFFSET 0.000000 0.000000 0.000000
						}
					}
				}
			}
		}
	}
	JOINT RHipJoint
	{
		OFFSET 0.000000 0.000000 0.000000
		CHANNELS 3 Zrotation Yrotation Xrotation
		JOINT RightUpLeg
		{
			OFFSET -1.800000 -1.400000 0.085000
			CHANNELS 3 Zrotation Yrotation Xrotation
			JOINT RightLeg
			{
				OFFSET -2.215000 -6.000000 0.000000
				CHANNELS 3 Zrotation Yrotation Xrotation
				JOINT RightFoot
				{
					OFFSET -2.500000 -6.900000 0.000000
					CHANNELS 3 Zrotation Yrotation Xrotation
					JOINT RightToeBase
					{
						OFFSET -0.200000 -0.500000 1.950000
						CHANNELS 3 Zrotation Yrotation Xrotation
						End Site
						{
							OFFSET 0.000000 0.000000 0.000000
						}
					}
				}
			}
		}
	}
	JOINT LowerBack
	{
		OFFSET 0.000000 0.000000 0.000000
		CHANNELS 3 Zrotation Yrotation Xrotation
		JOINT Spine
		{
			OFFSET -0.087000 1.940000 -0.288900
			CHANNELS 3 Zrotation Yrotation Xrotation
			JOINT Spine1
			{
				OFFSET 0.000000 1.950000 0.060000
				CHANNELS 3 Zrotation Yrotation Xrotation
				JOINT Neck
				{
					OFFSET 0.000000 0.000000 0.000000
					CHANNELS 3 Zrotation Yrotation Xrotation
					JOINT Neck1
					{
						OFFSET 0.000000 1.600000 0.340000
						CHANNELS 3 Zrotation Yrotation Xrotation
						JOINT Head
						{
							OFFSET 0.000000 1.667000 -0.240000
							CHANNELS 3 Zrotation Yrotation Xrotation
							End Site
							{
								OFFSET 0.000000 0.000000 0.000000
							}
						}
					}
				}
				JOINT LeftShoulder
				{
					OFFSET 0.000000 0.000000 0.000000
					CHANNELS 3 Zrotation Yrotation Xrotation
					JOINT LeftArm
					{
						OFFSET 2.700000 1.550000 -0.730000
						CHANNELS 3 Zrotation Yrotation Xrotation
						JOINT LeftForeArm
						{
							OFFSET 5.450000 0.000000 0.000000
							CHANNELS 3 Zrotation Yrotation Xrotation
							JOINT LeftHand
							{
								OFFSET 3.450000 0.000000 0.000000
								CHANNELS 3 Zrotation Yrotation Xrotation
								JOINT LeftHandIndex1
								{
									OFFSET 0.750000 0.000000 0.000000
									CHANNELS 3 Zrotation Yrotation Xrotation
									End Site
									{
										OFFSET 0.000000 0.000000 0.000000
									}
								}
							}
						}
					}
				}
				JOINT RightShoulder
				{
					OFFSET 0.000000 0.000000 0.000000
					CHANNELS 3 Zrotation Yrotation Xrotation
					JOINT RightArm
					{
						OFFSET -2.700000 1.550000 -0.730000
						CHANNELS 3 Zrotation Yrotation Xrotation
						JOINT RightForeArm
						{
							OFFSET -5.450000 0.000000 0.000000
							CHANNELS 3 Zrotation Yrotation Xrotation
							JOINT RightHand
							{
								OFFSET -3.450000 0.000000 0.000000
								CHANNELS 3 Zrotation Yrotation Xrotation
								JOINT RightHandIndex1
								{
									OFFSET -0.750000 0.000000 0.000000
									CHANNELS 3 Zrotation Yrotation Xrotation
									End Site
									{
										OFFSET 0.000000 0.000000 0.000000
									}
								}
							}
						}
					}
				}
			}
		}
	}
}
MOTION
Frames: 4
Frame Time: 0.016667
0.265260 17.127460 -2.601050 1.455987 5.742366 -4.210543 -14.706059 11.649061 4.362163 2.557244 -8.667056 -26.729994 -13.871039 15.348560 47.796581 0.646056 9.759266 1.076743 0.871520 0.617600 0.605050 18.867189 -11.171343 2.603548 5.304425 -0.444928 -1.243112 -1.027846 -8.423469 45.173740 -1.442627 -7.271553 1.877742 0.340530 -0.064030 0.226170 -5.171472 0.359315 -8.250274 21.013348 -0.302390 17.562629 -10.634854 3.789322 15.529734 3.437487 -5.152117 -13.036629 -16.014344 0.667306 50.096202 4.694010 -7.689090 -19.365910 -25.619061 -27.456544 7.116585 -56.184658 -37.745916 14.184844 -52.348749 -51.267409 23.288921 -3.358582 3.352839 0.644730 -0.225480 0.280830 0.279170 18.282683 32.234967 9.590657 46.378092 28.909068 0.372094 51.854040 49.530200 17.438043 2.200710 -1.709850 0.018690 0.242820 -0.246990 -0.120120 
0.265470 17.119420 -2.607480 1.457217 6.143937 -4.044852 -14.730277 11.696395 4.419485 2.492645 -8.668066 -27.345140 -13.770973 15.499905 48.295964 0.708960 9.815272 1.063378 0.862860 0.613000 0.585530 18.838165 -11.095753 2.629060 5.688140 -0.244713 -1.466721 -1.358768 -8.143342 45.365917 -1.444017 -7.217480 1.906819 0.315620 -0.077620 0.211570 -5.104075 0.169417 -8.322000 20.941160 -0.501098 18.228106 -10.449667 3.832855 14.503741 3.358986 -5.583449 -13.463265 -17.432129 1.211921 51.046870 5.768280 -8.213320 -19.219190 -26.777706 -27.333935 7.054101 -57.318235 -35.888242 12.795144 -53.617498 -49.027671 22.417932 -3.313116 3.378323 0.652310 -0.255000 0.294370 0.288510 19.601348 32.531080 10.191891 46.635838 26.607042 -1.157589 50.698241 47.971815 16.014342 2.218777 -1.705272 0.033400 0.235180 -0.258800 -0.103810 
0.275230 17.114470 -2.622150 1.358062 6.753078 -3.776186 -14.758505 11.704622 4.514152 2.580907 -8.915404 -28.315417 -13.748663 15.674903 49.090059 0.760826 9.930360 1.011022 0.853430 0.605390 0.576810 18.814612 -10.987433 2.647316 6.134164 -0.036365 -1.978385 -1.275463 -8.138936 45.629226 -1.453934 -7.175522 1.913701 0.289440 -0.109420 0.203570 -5.042463 -0.025179 -8.400338 21.120814 -1.031558 19.046896 -10.477457 3.638032 13.217692 3.466440 -6.208507 -13.770444 -19.221256 2.155098 52.014274 6.633920 -8.498570 -19.884050 -28.332387 -26.810689 6.811084 -58.612062 -33.157280 10.286412 -51.956982 -45.218203 19.131696 -3.254320 3.389812 0.677720 -0.296450 0.319960 0.275460 20.958262 32.546411 10.684531 47.394192 24.254931 -2.743520 47.639433 45.837164 13.736129 2.233150 -1.668756 0.049750 0.223290 -0.255430 -0.098890 
0.260430 17.114980 -2.637370 1.395481 7.596648 -3.123789 -14.802256 11.679920 4.639522 2.656676 -9.438784 -29.609948 -13.658544 15.565041 49.560544 0.781714 9.964559 1.004078 0.852670 0.595630 0.579690 18.781624 -10.884140 2.638452 6.409295 0.090932 -3.024621 -0.903469 -8.347614 45.790998 -1.452569 -7.140766 1.925652 0.272840 -0.117680 0.202960 -4.950584 -0.200940 -8.481320 20.566258 -1.301925 19.345562 -10.168906 3.461652 12.137681 3.506243 -6.481969 -13.823042 -19.873911 2.510137 52.167362 6.771410 -8.621150 -19.816270 -29.136620 -26.243371 6.533455 -59.920718 -31.081608 8.281480 -47.581189 -41.097740 14.941495 -3.212931 3.383220 0.690490 -0.311740 0.331030 0.281180 21.701214 32.310437 10.917000 48.860228 22.572091 -3.820291 43.805684 43.559221 11.282507 2.237819 -1.643167 0.054850 0.219750 -0.263780 -0.096530 
